<?xml version="1.0" encoding="UTF-8" standalone="no"?>
<svg
   xmlns:dc="http://purl.org/dc/elements/1.1/"
   xmlns:cc="http://creativecommons.org/ns#"
   xmlns:rdf="http://www.w3.org/1999/02/22-rdf-syntax-ns#"
   xmlns:svg="http://www.w3.org/2000/svg"
   xmlns="http://www.w3.org/2000/svg"
   xmlns:sodipodi="http://sodipodi.sourceforge.net/DTD/sodipodi-0.dtd"
   xmlns:inkscape="http://www.inkscape.org/namespaces/inkscape"
   viewBox="0 0 16 16"
   fill-rule="evenodd"
   clip-rule="evenodd"
   stroke-linejoin="round"
   stroke-miterlimit="1.414"
   version="1.1"
   id="svg4"
   sodipodi:docname="heroku.svg"
   inkscape:version="1.0.2 (1.0.2+r75+1)">
  <metadata
     id="metadata10">
    <rdf:RDF>
      <cc:Work
         rdf:about="">
        <dc:format>image/svg+xml</dc:format>
        <dc:type
           rdf:resource="http://purl.org/dc/dcmitype/StillImage" />
      </cc:Work>
    </rdf:RDF>
  </metadata>
  <defs
     id="defs8" />
  <sodipodi:namedview
     pagecolor="#ffffff"
     bordercolor="#666666"
     borderopacity="1"
     objecttolerance="10"
     gridtolerance="10"
     guidetolerance="10"
     inkscape:pageopacity="0"
     inkscape:pageshadow="2"
     inkscape:window-width="740"
     inkscape:window-height="480"
     id="namedview6"
     showgrid="false"
     inkscape:zoom="53.75"
     inkscape:cx="8"
     inkscape:cy="8"
     inkscape:window-x="67"
     inkscape:window-y="27"
     inkscape:window-maximized="0"
     inkscape:current-layer="svg4" />
  <path
     fill="#430098"
     d="M13.74 0H2.26C1.46 0 .82.64.82 1.44v13.12c0 .8.64 1.44 1.44 1.44h11.48c.8 0 1.44-.64 1.44-1.44V1.44c0-.8-.64-1.44-1.44-1.44zm.64 14.56c0 .36-.28.64-.64.64H2.26c-.36 0-.64-.28-.64-.64V1.44c0-.36.28-.64.64-.64h11.48c.36 0 .64.28.64.64v13.12zm-9.96-.96l1.8-1.6-1.8-1.6v3.2zm6.48-6.48c-.32-.32-.92-.72-1.92-.72-1.08 0-2.2.28-3 .56V2.4h-1.6v6.92L5.5 8.8s1.84-.84 3.44-.84c.8 0 1 .44 1 .84v4.8h1.6V8.8c.04-.12.04-1-.64-1.68zM8.78 5h1.6c.72-.84 1.08-1.68 1.2-2.6h-1.6c-.16.92-.56 1.76-1.2 2.6z"
     id="path2"
     style="fill:#000000" />
</svg>
